<svg id="svg" version="1.1" width="400" height="224.90778148603547" viewBox="0 0 400 224.90778148603547" xmlns="http://www.w3.org/2000/svg" xmlns:xlink="http://www.w3.org/1999/xlink" ><g id="svgg"><path id="path0" d="M100.417 56.099 C 99.056 56.367,95.137 57.044,92.762 57.421 C 91.851 57.566,91.045 57.722,90.970 57.769 C 90.895 57.815,90.833 78.136,90.833 102.927 L 90.833 148.000 96.417 148.000 L 102.000 148.000 102.000 122.423 C 102.000 93.429,101.830 96.663,103.373 96.344 C 103.764 96.263,104.796 96.043,105.667 95.853 C 113.211 94.215,119.767 94.617,123.460 96.946 C 124.761 97.766,127.167 100.479,127.167 101.126 C 127.167 101.206,127.354 101.660,127.583 102.135 C 127.813 102.610,128.001 103.092,128.002 103.208 C 128.003 103.323,128.158 103.904,128.345 104.500 C 129.326 107.623,129.385 108.933,129.453 129.292 L 129.516 148.000 135.101 148.000 L 140.686 148.000 140.621 127.542 C 140.585 116.290,140.503 106.821,140.437 106.500 C 140.372 106.179,140.131 104.867,139.902 103.583 C 139.462 101.116,138.936 99.290,138.147 97.487 C 137.883 96.884,137.667 96.345,137.667 96.291 C 137.667 96.096,135.907 93.332,135.336 92.630 C 130.945 87.231,123.508 84.514,114.167 84.896 C 111.481 85.006,111.229 85.032,109.167 85.410 C 108.479 85.537,107.654 85.683,107.333 85.737 C 106.629 85.853,104.085 86.580,102.875 87.011 L 102.000 87.322 102.000 71.578 C 102.000 59.084,101.957 55.837,101.792 55.852 C 101.677 55.862,101.058 55.973,100.417 56.099 M49.583 84.847 C 47.276 84.981,41.921 85.839,40.333 86.329 C 39.737 86.513,39.121 86.665,38.963 86.665 C 38.805 86.666,38.273 86.845,37.780 87.063 L 36.883 87.460 37.267 89.938 C 37.478 91.301,37.780 93.339,37.938 94.467 C 38.249 96.678,38.280 96.747,38.863 96.519 C 41.215 95.596,46.239 94.667,49.917 94.474 C 55.974 94.157,59.198 94.568,61.551 95.958 C 61.900 96.165,62.243 96.333,62.314 96.333 C 62.384 96.333,62.618 96.521,62.833 96.750 C 63.049 96.979,63.305 97.171,63.404 97.175 C 63.786 97.194,66.333 100.661,66.333 101.161 C 66.333 101.241,66.478 101.644,66.656 102.058 C 67.199 103.326,67.524 105.590,67.617 108.767 L 67.706 111.784 66.811 111.623 C 66.319 111.535,65.268 111.320,64.475 111.147 C 56.970 109.504,45.814 110.605,40.451 113.516 C 40.286 113.606,39.742 113.900,39.242 114.171 C 32.084 118.043,29.016 126.085,31.183 135.294 C 31.583 136.991,32.093 138.285,33.071 140.078 C 35.524 144.577,41.025 147.782,48.083 148.825 C 53.521 149.629,67.127 148.962,74.864 147.512 C 75.810 147.335,77.054 147.140,77.629 147.078 L 78.674 146.966 78.629 125.192 L 78.583 103.417 78.189 101.500 C 76.420 92.900,71.294 87.148,64.083 85.672 C 63.717 85.597,62.854 85.412,62.167 85.261 C 59.640 84.706,54.790 84.546,49.583 84.847 M253.500 84.876 C 253.454 84.920,252.442 85.002,251.250 85.059 C 247.414 85.242,242.316 85.985,237.250 87.100 C 236.242 87.321,235.299 87.502,235.155 87.501 C 235.011 87.501,234.505 87.615,234.030 87.757 L 233.166 88.013 233.208 117.965 L 233.250 147.917 238.792 147.961 L 244.333 148.004 244.333 122.014 L 244.333 96.023 245.542 95.770 C 249.793 94.881,258.208 94.606,260.754 95.274 C 266.156 96.689,268.756 101.151,269.335 110.000 C 269.422 111.329,269.495 120.423,269.497 130.208 L 269.500 148.000 275.174 148.000 L 280.848 148.000 280.779 128.125 C 280.732 114.405,280.652 107.889,280.521 107.083 C 280.417 106.442,280.255 105.242,280.162 104.417 C 280.068 103.592,279.814 102.242,279.597 101.417 C 279.000 99.146,278.974 98.906,279.300 98.630 C 280.080 97.967,282.061 96.968,284.500 96.007 C 289.160 94.170,299.499 94.754,300.713 96.922 C 300.788 97.056,300.935 97.167,301.038 97.167 C 301.883 97.167,303.914 100.558,304.668 103.227 C 305.694 106.857,305.729 107.636,305.827 128.750 L 305.917 147.917 311.553 147.961 L 317.189 148.004 317.115 128.294 C 317.037 107.459,316.983 105.842,316.238 101.917 C 315.138 96.115,312.851 91.835,309.445 89.205 C 304.274 85.211,295.574 83.785,287.417 85.594 C 285.747 85.965,285.178 86.127,282.833 86.900 C 281.238 87.426,279.250 88.234,278.446 88.682 C 278.279 88.775,277.829 89.013,277.446 89.210 C 276.481 89.706,275.043 90.628,274.918 90.831 C 274.717 91.156,274.364 90.994,273.574 90.214 C 271.135 87.810,268.042 86.271,263.917 85.408 C 261.879 84.982,253.819 84.570,253.500 84.876 M351.667 84.954 C 348.632 85.305,344.147 86.570,341.946 87.696 C 340.540 88.415,340.137 88.640,339.335 89.148 C 338.214 89.859,338.363 89.746,336.750 91.113 C 333.263 94.069,329.989 98.817,328.497 103.083 C 327.729 105.281,327.502 106.056,327.109 107.833 C 325.103 116.898,326.535 130.436,330.020 135.359 C 330.192 135.602,330.333 135.917,330.333 136.058 C 330.333 136.198,330.409 136.361,330.502 136.418 C 330.595 136.476,330.815 136.799,330.990 137.136 C 331.339 137.808,331.517 138.043,333.271 140.154 C 334.386 141.496,336.649 143.667,336.933 143.667 C 337.004 143.667,337.233 143.827,337.441 144.023 C 337.650 144.219,337.965 144.463,338.141 144.565 C 338.318 144.667,339.014 145.084,339.689 145.493 C 347.905 150.465,361.555 151.233,373.167 147.377 C 376.251 146.353,376.185 146.510,375.358 142.167 C 375.175 141.204,374.939 139.830,374.833 139.113 C 374.484 136.742,374.384 136.619,373.250 137.167 C 372.883 137.344,372.483 137.491,372.360 137.494 C 372.236 137.497,371.599 137.679,370.943 137.897 C 363.690 140.312,353.409 140.267,347.921 137.796 C 346.866 137.321,346.483 137.101,345.167 136.214 C 344.938 136.060,344.158 135.344,343.435 134.624 L 342.120 133.314 342.519 133.039 C 342.738 132.887,343.561 132.235,344.349 131.590 C 345.137 130.945,346.409 129.929,347.176 129.333 C 347.942 128.737,348.742 128.100,348.952 127.917 C 349.357 127.564,349.638 127.335,351.274 126.030 C 351.838 125.580,352.400 125.126,352.524 125.020 C 352.708 124.863,354.759 123.228,358.880 119.952 C 359.135 119.749,359.435 119.507,359.547 119.415 C 359.659 119.322,360.275 118.838,360.917 118.340 C 361.558 117.841,362.196 117.333,362.333 117.210 C 362.471 117.088,363.633 116.154,364.917 115.136 C 367.068 113.430,368.020 112.662,368.667 112.112 C 368.804 111.995,369.442 111.493,370.083 110.996 C 370.725 110.498,371.296 110.026,371.352 109.947 C 371.409 109.868,371.610 109.716,371.799 109.610 C 372.500 109.215,375.453 106.747,376.500 105.679 C 378.883 103.249,378.625 100.449,375.549 95.365 C 371.061 87.947,361.570 83.810,351.667 84.954 M358.940 95.190 C 362.821 96.701,367.407 101.337,366.083 102.411 C 365.438 102.935,365.037 103.256,360.667 106.747 C 358.421 108.541,356.385 110.176,356.143 110.380 C 355.901 110.583,355.496 110.900,355.243 111.083 C 354.841 111.376,353.281 112.610,352.642 113.142 C 352.283 113.442,350.127 115.174,348.981 116.083 C 347.425 117.319,344.316 119.796,343.794 120.216 C 343.544 120.418,343.169 120.713,342.961 120.871 C 342.753 121.030,342.049 121.592,341.396 122.121 C 338.109 124.784,338.488 124.826,338.069 121.750 C 337.482 117.440,337.854 110.765,338.848 107.797 C 339.023 107.273,339.167 106.734,339.167 106.600 C 339.167 106.291,339.862 104.574,340.553 103.178 C 341.586 101.090,343.220 99.037,344.939 97.667 C 348.624 94.729,354.904 93.618,358.940 95.190 M63.293 119.745 C 64.186 119.880,65.479 120.141,66.167 120.325 C 66.854 120.509,67.473 120.661,67.542 120.663 C 67.610 120.665,67.667 124.790,67.667 129.830 L 67.667 138.994 67.292 139.073 C 60.599 140.483,50.099 139.850,46.250 137.804 C 40.613 134.808,40.390 125.748,45.861 122.055 C 49.147 119.837,57.009 118.796,63.293 119.745 " stroke="none" fill="#6c6c74" fill-rule="evenodd"></path><path id="path1" d="M364.235 59.157 C 363.232 59.397,362.469 60.044,360.021 62.732 C 354.418 68.882,348.241 77.105,348.274 78.370 C 348.330 80.517,349.872 80.499,353.475 78.310 C 354.057 77.956,354.576 77.667,354.627 77.667 C 354.717 77.667,355.345 77.287,357.333 76.032 C 358.455 75.324,362.187 72.822,362.417 72.624 C 362.508 72.546,363.263 71.979,364.094 71.365 C 370.436 66.684,372.067 64.291,370.750 61.599 C 370.363 60.807,369.667 60.227,369.667 60.697 C 369.667 60.788,369.433 60.666,369.147 60.425 C 368.352 59.757,367.758 59.501,366.390 59.240 C 365.025 58.978,364.989 58.977,364.235 59.157 M183.833 70.944 C 177.598 71.608,173.627 72.740,168.583 75.293 C 167.575 75.803,166.563 76.348,166.333 76.503 C 166.104 76.658,165.699 76.928,165.433 77.101 C 164.337 77.817,163.324 78.536,162.132 79.444 C 160.835 80.431,157.406 83.858,156.239 85.333 C 155.696 86.021,155.209 86.621,155.159 86.667 C 154.412 87.344,150.859 93.596,150.413 95.015 C 150.344 95.236,150.110 95.806,149.894 96.281 C 149.677 96.756,149.500 97.220,149.500 97.311 C 149.500 97.402,149.318 98.063,149.095 98.780 C 147.302 104.559,146.935 112.885,148.237 118.250 C 148.460 119.167,148.714 120.217,148.803 120.583 C 149.102 121.825,150.249 125.019,150.867 126.333 C 152.759 130.357,154.333 132.786,157.075 135.917 C 158.759 137.839,161.520 140.445,162.901 141.417 C 163.162 141.600,163.572 141.906,163.813 142.096 C 164.794 142.872,166.167 143.686,166.328 143.586 C 166.444 143.515,166.500 139.274,166.500 130.657 L 166.500 117.833 168.749 117.833 L 170.998 117.833 171.041 132.012 L 171.083 146.190 172.250 146.658 C 180.193 149.848,191.250 150.208,198.676 147.518 C 199.175 147.337,199.790 147.145,200.042 147.092 L 200.500 146.994 200.500 125.663 L 200.500 104.333 203.000 104.333 L 205.500 104.333 205.500 124.417 C 205.500 135.462,205.558 144.500,205.630 144.500 C 205.701 144.500,205.927 144.382,206.132 144.239 C 206.337 144.095,206.672 143.886,206.877 143.775 C 207.662 143.346,209.107 142.356,209.319 142.100 C 209.441 141.953,209.609 141.833,209.692 141.833 C 210.522 141.833,216.589 135.782,218.382 133.167 C 221.349 128.838,222.311 126.914,223.923 122.083 C 226.767 113.558,226.434 104.433,222.943 95.229 C 222.256 93.417,219.513 88.445,218.642 87.433 C 218.555 87.332,218.180 86.837,217.808 86.333 C 216.011 83.895,213.144 81.002,210.578 79.037 C 209.488 78.202,207.524 76.833,207.416 76.833 C 207.353 76.833,207.066 76.665,206.778 76.458 C 206.490 76.252,205.991 75.951,205.669 75.789 C 205.347 75.627,204.896 75.384,204.667 75.249 C 203.745 74.707,201.607 73.804,199.000 72.856 C 195.315 71.516,187.600 70.543,183.833 70.944 M191.750 77.403 C 194.144 77.811,196.304 78.390,198.692 79.264 C 200.179 79.809,203.691 81.653,204.774 82.458 C 205.175 82.756,205.544 83.000,205.594 83.000 C 205.714 83.000,207.947 84.766,208.583 85.364 C 210.672 87.328,211.629 88.354,212.748 89.833 C 213.199 90.429,213.612 90.954,213.666 91.000 C 214.040 91.316,216.300 95.292,216.982 96.833 C 217.297 97.545,217.438 97.916,218.057 99.667 C 219.662 104.203,220.093 108.964,219.422 114.735 C 219.197 116.673,218.588 119.159,217.899 120.960 C 217.680 121.534,217.500 122.079,217.500 122.170 C 217.500 122.387,215.488 126.557,215.331 126.667 C 215.265 126.712,215.057 127.055,214.868 127.428 C 214.679 127.801,214.406 128.204,214.262 128.323 C 214.118 128.443,214.000 128.626,214.000 128.731 C 214.000 128.836,213.811 129.146,213.579 129.419 C 213.347 129.693,212.804 130.366,212.371 130.915 L 211.583 131.913 211.541 115.123 L 211.498 98.333 205.999 98.333 L 200.500 98.333 200.500 92.500 L 200.500 86.667 185.750 86.667 L 171.000 86.667 171.000 99.081 L 171.000 111.495 165.625 111.539 L 160.250 111.583 160.167 120.749 L 160.083 129.914 159.254 128.665 C 148.896 113.063,153.079 92.479,168.662 82.378 C 169.260 81.990,169.831 81.606,169.929 81.524 C 170.028 81.442,170.440 81.217,170.846 81.025 C 171.251 80.832,171.696 80.610,171.833 80.531 C 172.362 80.227,173.946 79.505,174.583 79.279 C 174.950 79.148,175.588 78.922,176.000 78.775 C 178.031 78.054,180.556 77.505,183.667 77.108 C 184.978 76.941,190.144 77.129,191.750 77.403 M194.500 95.500 L 194.500 98.333 190.583 98.333 L 186.667 98.333 186.667 120.833 L 186.667 143.333 186.180 143.333 C 185.077 143.333,185.167 144.747,185.167 127.316 L 185.167 111.500 181.167 111.500 L 177.167 111.500 177.167 102.083 L 177.167 92.667 185.833 92.667 L 194.500 92.667 194.500 95.500 M194.500 123.325 L 194.500 142.318 193.875 142.491 C 192.532 142.864,192.667 144.985,192.667 123.500 L 192.667 104.333 193.583 104.333 L 194.500 104.333 194.500 123.325 M179.000 130.083 C 179.000 136.821,178.976 142.333,178.947 142.333 C 178.918 142.333,178.505 142.218,178.030 142.077 L 177.167 141.820 177.167 129.827 L 177.167 117.833 178.083 117.833 L 179.000 117.833 179.000 130.083 " stroke="none" fill="#d42324" fill-rule="evenodd"></path><path id="path2" d="M360.546 55.653 C 359.473 55.926,359.410 55.984,355.099 60.678 C 354.036 61.835,348.770 68.146,347.863 69.349 C 345.625 72.320,344.833 73.674,344.833 74.532 C 344.834 75.772,346.516 78.227,348.104 79.306 L 348.625 79.660 348.388 78.972 C 348.083 78.086,348.218 77.699,349.440 75.944 C 353.946 69.474,361.762 60.321,363.583 59.382 C 364.906 58.701,367.725 59.229,369.147 60.425 C 369.433 60.666,369.667 60.784,369.667 60.687 C 369.667 60.590,369.788 60.557,369.936 60.614 C 370.166 60.702,370.177 60.664,370.011 60.354 C 369.904 60.154,369.745 60.035,369.658 60.089 C 369.571 60.142,369.500 60.039,369.500 59.859 C 369.500 57.834,363.343 54.941,360.546 55.653 M252.627 84.951 C 252.834 84.991,253.134 84.990,253.294 84.948 C 253.453 84.906,253.283 84.874,252.917 84.875 C 252.550 84.877,252.420 84.911,252.627 84.951 M192.747 123.500 C 192.747 134.087,192.767 138.419,192.792 133.125 C 192.816 127.831,192.816 119.169,192.792 113.875 C 192.767 108.581,192.747 112.912,192.747 123.500 M269.372 112.000 C 269.372 112.321,269.406 112.452,269.448 112.292 C 269.490 112.131,269.490 111.869,269.448 111.708 C 269.406 111.548,269.372 111.679,269.372 112.000 " stroke="none" fill="#741414" fill-rule="evenodd"></path><path id="path3" d="" stroke="none" fill="#88705c" fill-rule="evenodd"></path><path id="path4" d="" stroke="none" fill="#88705c" fill-rule="evenodd"></path></g></svg>